<?xml version="1.0" encoding="UTF-8" standalone="no"?>
<!-- Created with Inkscape (http://www.inkscape.org/) -->

<svg
   xmlns:dc="http://purl.org/dc/elements/1.1/"
   xmlns:cc="http://creativecommons.org/ns#"
   xmlns:rdf="http://www.w3.org/1999/02/22-rdf-syntax-ns#"
   xmlns:svg="http://www.w3.org/2000/svg"
   xmlns="http://www.w3.org/2000/svg"
   xmlns:sodipodi="http://sodipodi.sourceforge.net/DTD/sodipodi-0.dtd"
   xmlns:inkscape="http://www.inkscape.org/namespaces/inkscape"
   width="563.01288"
   height="740.49194"
   id="svg2996"
   version="1.1"
   inkscape:version="0.48.4 r9939"
   sodipodi:docname="Antique_Bicycle_Big.svg"
   inkscape:export-filename="K:\Mis Documentos (1)\Vector\My OCALs\Antique_BicycleBig.png"
   inkscape:export-xdpi="90"
   inkscape:export-ydpi="90">
  <defs
     id="defs2998" />
  <sodipodi:namedview
     id="base"
     pagecolor="#ffffff"
     bordercolor="#666666"
     borderopacity="1.0"
     inkscape:pageopacity="0.0"
     inkscape:pageshadow="2"
     inkscape:zoom="0.69413314"
     inkscape:cx="281.51073"
     inkscape:cy="370.2591"
     inkscape:document-units="px"
     inkscape:current-layer="layer2"
     showgrid="false"
     fit-margin-top="0"
     fit-margin-left="0"
     fit-margin-right="0"
     fit-margin-bottom="0"
     inkscape:window-width="1024"
     inkscape:window-height="712"
     inkscape:window-x="-4"
     inkscape:window-y="-4"
     inkscape:window-maximized="1" />
  <metadata
     id="metadata3001">
    <rdf:RDF>
      <cc:Work
         rdf:about="">
        <dc:format>image/svg+xml</dc:format>
        <dc:type
           rdf:resource="http://purl.org/dc/dcmitype/StillImage" />
        <dc:title></dc:title>
      </cc:Work>
    </rdf:RDF>
  </metadata>
  <g
     inkscape:groupmode="layer"
     id="layer2"
     inkscape:label="Bici"
     style="display:inline"
     transform="translate(129.6955,268.75993)">
    <g
       id="g3028"
       transform="matrix(4,0,0,4,-455.44998,-304.40571)">
      <g
         id="g3068">
        <g
           id="g3075">
          <g
             id="g3071">
            <path
               inkscape:connector-curvature="0"
               id="path2986"
               style="font-size:medium;font-style:normal;font-variant:normal;font-weight:normal;font-stretch:normal;text-indent:0;text-align:start;text-decoration:none;line-height:normal;letter-spacing:normal;word-spacing:normal;text-transform:none;direction:ltr;block-progression:tb;writing-mode:lr-tb;text-anchor:start;baseline-shift:baseline;color:#000000;fill:#000000;fill-opacity:1;stroke:#000000;stroke-width:1.5;stroke-opacity:1;marker:none;visibility:visible;display:inline;overflow:visible;enable-background:accumulate;font-family:Sans;-inkscape-font-specification:Sans"
               d="m 102.61734,159.06838 c -9.333267,-1.75675 -18.386396,4.4282 -20.143143,13.76148 -1.756747,9.33328 4.43399,18.3557 13.76726,20.11244 9.333273,1.75675 18.349913,-4.40327 20.106663,-13.73655 1.75674,-9.33328 -4.3975,-18.38063 -13.73078,-20.13737 z m -0.55492,2.94823 c 7.73993,1.45684 12.79431,8.89427 11.33747,16.63421 -1.45684,7.73994 -8.86357,12.8001 -16.603506,11.34325 -7.739928,-1.45684 -12.8308,-8.86934 -11.373958,-16.60928 1.456842,-7.73994 8.900062,-12.82502 16.639994,-11.36818 z m 77.36003,-70.989839 c -27.96909,-5.264453 -54.94939,13.168069 -60.21385,41.137149 -5.26445,27.96908 13.16807,54.94939 41.13716,60.21385 27.96908,5.26445 54.94939,-13.16807 60.21384,-41.13716 5.26446,-27.96908 -13.16807,-54.949385 -41.13715,-60.213839 z m -0.55199,2.93261 c 26.37574,4.964548 43.72108,30.353499 38.75653,56.729249 -4.96455,26.37574 -30.34798,43.69175 -56.72373,38.7272 -26.37574,-4.96455 -43.69727,-30.31866 -38.73272,-56.6944 4.96455,-26.37574 30.32418,-43.726598 56.69992,-38.762049 z" />
            <path
               inkscape:connector-curvature="0"
               style="font-size:medium;font-style:normal;font-variant:normal;font-weight:normal;font-stretch:normal;text-indent:0;text-align:start;text-decoration:none;line-height:normal;letter-spacing:normal;word-spacing:normal;text-transform:none;direction:ltr;block-progression:tb;writing-mode:lr-tb;text-anchor:start;baseline-shift:baseline;color:#000000;fill:#000000;fill-opacity:1;stroke:#000000;stroke-width:1.5;stroke-opacity:1;marker:none;visibility:visible;display:inline;overflow:visible;enable-background:accumulate;font-family:Sans;-inkscape-font-specification:Sans"
               d="m 170.51803,85.582004 c -15.16005,-2.996921 -34.90758,5.948552 -48.19776,25.461466 -13.67109,20.07219 -20.67965,47.96878 -22.518875,64.73289 l 2.994475,0.30924 c 1.78749,-16.29246 8.79431,-43.94462 22.00151,-63.33573 12.80747,-18.804211 31.73228,-26.832853 45.29615,-24.067891 l -1.50682,49.227031 c -0.86023,0.41579 -1.53127,1.20882 -1.72157,2.21986 -0.31847,1.69194 0.80686,3.29995 2.4988,3.61841 1.69194,0.31846 3.32488,-0.77037 3.64334,-2.46231 0.24707,-1.31264 -0.38048,-2.57734 -1.45861,-3.23183 l 1.55196,-50.64948 0.0354,-1.20169 -1.15545,-0.281081 c -0.47909,-0.121548 -0.97352,-0.242207 -1.46255,-0.338885 z"
               id="path2988" />
          </g>
          <path
             inkscape:connector-curvature="0"
             id="path3009"
             d="m 153.69844,139.47082 32.66342,-2.60506"
             style="color:#000000;fill:none;stroke:#000000;stroke-width:2;stroke-linecap:butt;stroke-linejoin:miter;stroke-miterlimit:4;stroke-opacity:1;stroke-dasharray:none;stroke-dashoffset:0;marker:none;visibility:visible;display:inline;overflow:visible;enable-background:accumulate" />
        </g>
        <path
           style="color:#000000;fill:none;stroke:#000000;stroke-width:2;stroke-linecap:butt;stroke-linejoin:miter;stroke-miterlimit:4;stroke-opacity:1;stroke-dasharray:none;stroke-dashoffset:0;marker:none;visibility:visible;display:inline;overflow:visible;enable-background:accumulate"
           d="m 168.72763,138.26848 -8.41635,-64.124511 15.63035,-1.603113"
           id="path3066"
           inkscape:connector-curvature="0" />
      </g>
      <g
         id="g3132"
         style="display:inline">
        <g
           id="g3059">
          <path
             id="path3007"
             d="m 133.90625,9.6875 c -1.50623,0.1188185 -3.48499,0.645596 -5.5625,1.59375 -4.15502,1.896308 -7.1606,4.685064 -6.71875,6.21875 0.6568,1.975927 1.40376,3.938176 2.125,5.8125 -2.48469,1.726563 -3.90349,3.454515 -3.5,4.625 0.71456,2.072888 6.74928,1.656748 13.46875,-0.90625 6.71947,-2.562998 11.58956,-6.302112 10.875,-8.375 -0.42068,-1.220344 -2.71469,-1.586054 -5.875,-1.15625 -0.73872,-2.317448 -1.54379,-4.639401 -2.03125,-6.875 -0.22093,-0.766843 -1.27502,-1.0563185 -2.78125,-0.9375 z"
             style="fill:#000000;fill-opacity:1;stroke:#000000;stroke-width:1.5;stroke-miterlimit:4;stroke-opacity:1;stroke-dasharray:none;stroke-dashoffset:0"
             inkscape:connector-curvature="0" />
          <path
             sodipodi:nodetypes="ccccccc"
             inkscape:connector-curvature="0"
             id="path3006"
             d="m 134.61167,39.36492 c 3.11732,-2.550537 2.26715,-5.384467 2.26715,-5.384467 5.6535,0.965088 3.64577,-2.810612 3.9675,-5.384467 3.40072,-0.141696 0.97272,-3.135544 -1.13357,-7.084825 -3.54242,-3.684109 -13.31947,1.700358 -13.31947,1.700358 2.55053,5.66786 -2.55054,11.619113 -2.55054,11.619113 z"
             style="color:#000000;fill:#cccccf;stroke:#000000;stroke-width:0.75;stroke-linecap:butt;stroke-linejoin:miter;stroke-miterlimit:4;stroke-opacity:1;stroke-dasharray:none;stroke-dashoffset:0;marker:none;visibility:visible;display:inline;overflow:visible;enable-background:accumulate" />
        </g>
        <g
           id="g3124">
          <path
             inkscape:connector-curvature="0"
             id="path3010"
             d="m 133.9375,20.4375 c -3.72922,0.67804 -7.53125,2.78125 -7.53125,2.78125 1.16606,2.591245 0.72018,5.229809 -0.0937,7.34375 1.8482,-0.27321 3.90837,-0.977595 4.0625,-2.75 0,0 -1.0792,-1.185133 -0.9375,-2.53125 0,0 -0.49255,-6.251119 3.6875,-0.9375 l 0.4375,1 1.34375,-0.21875 c -0.81437,-1.551173 -0.93874,-3.351254 -0.875,-4.6875 -0.0305,0.0054 -0.0633,-0.0055 -0.0937,0 z"
             style="color:#000000;fill:#000000;fill-opacity:1;stroke:#000000;stroke-width:0.5;stroke-linecap:butt;stroke-linejoin:miter;stroke-miterlimit:4;stroke-opacity:1;stroke-dasharray:none;stroke-dashoffset:0;marker:none;visibility:visible;display:inline;overflow:visible;enable-background:accumulate" />
          <g
             id="g3023">
            <g
               id="g3017">
              <path
                 inkscape:connector-curvature="0"
                 id="path3008"
                 d="m 133.46875,28.15625 c 1.48339,3.235502 2.06478,7.486357 2.3125,10 1.68336,-2.162523 1.09375,-4.1875 1.09375,-4.1875 3.68279,0.628676 4.12004,-0.747912 4.0625,-2.5 -4.00665,1.391952 -7.47423,-3.353614 -7.46875,-3.3125 z"
                 style="color:#000000;fill:#000000;fill-opacity:1;stroke:none;stroke-width:0.5;marker:none;visibility:visible;display:inline;overflow:visible;enable-background:accumulate" />
              <path
                 inkscape:connector-curvature="0"
                 id="path3015"
                 d="m 139.72131,27.753889 c 0.70136,0.901751 2.40466,0.450875 2.40466,0.450875 1.40273,-1.402724 -2.40466,-0.450875 -2.40466,-0.450875 z"
                 style="color:#000000;fill:#000000;fill-opacity:1;stroke:none;stroke-width:0.5;marker:none;visibility:visible;display:inline;overflow:visible;enable-background:accumulate" />
            </g>
            <path
               style="color:#000000;fill:#000000;fill-opacity:1;stroke:none;stroke-width:0.5;marker:none;visibility:visible;display:inline;overflow:visible;enable-background:accumulate"
               d="m 137.41683,24.146885 c 2.10409,1.65321 2.95574,0.400778 2.95574,0.400778 -0.90175,-0.851654 -2.95574,-0.400778 -2.95574,-0.400778 z"
               id="path3021"
               inkscape:connector-curvature="0" />
          </g>
        </g>
        <path
           style="color:#000000;fill:#000000;fill-opacity:1;stroke:#000000;stroke-width:1.5;stroke-linecap:butt;stroke-linejoin:miter;stroke-miterlimit:4;stroke-opacity:1;stroke-dasharray:none;stroke-dashoffset:0;marker:none;visibility:visible;display:inline;overflow:visible;enable-background:accumulate"
           d="m 127.24345,32.280097 c -1.98375,-0.566786 -3.40071,1.983751 -3.40071,1.983751 -11.33572,9.351969 -3.11733,34.007159 -3.11733,34.007159 -2.0103,17.94079 4.49861,35.342443 2.83393,55.261633 3.40072,0.56679 6.51804,-2.26714 6.51804,-2.26714 l 0,3.11732 c 7.81035,1.21345 20.10376,-22.04416 19.55412,-29.189479 2.55054,1.133572 6.80143,3.400716 6.80143,3.400716 -1.70036,0.850179 1.13357,2.125443 1.13357,2.125443 -4.39259,0 -11.88362,24.12291 -11.88362,24.12291 -7.67049,4.0747 -2.00263,9.17577 -2.00263,9.17577 4.53428,0.28339 9.63536,3.9675 9.63536,3.9675 l 7.935,-0.56678 c -7.65161,-5.38447 -6.23464,-7.65161 -6.23464,-7.65161 l 1.98375,0.28339 c 0.28339,-5.10108 9.91875,-24.65519 9.91875,-24.65519 -0.85018,9.06857 3.68411,26.92233 3.68411,26.92233 -3.11732,4.81768 3.9675,10.20215 3.9675,10.20215 2.55054,-0.28339 6.80143,-3.9675 6.80143,-3.9675 l -0.56678,-1.13357 c 7.36822,-0.2834 13.88625,-7.93501 13.88625,-7.93501 0.85018,-3.9675 -10.48554,0.85018 -10.48554,0.85018 -5.10107,0 -5.95125,-5.10107 -5.95125,-5.10107 0.85018,-13.31947 0.56679,-35.707519 0.56679,-35.707519 1.13357,-5.384467 -17.99152,-11.132982 -20.68769,-13.886256 0.56678,-1.416965 2.26714,-7.651611 2.26714,-7.651611 -5.38446,-2.83393 -14.63411,-9.23857 -18.13715,-10.202148 -3.40072,-21.82126 -15.01983,-25.505369 -15.01983,-25.505369 z"
           id="path3026"
           inkscape:connector-curvature="0"
           sodipodi:nodetypes="cccccccccccccccccccccccccccc" />
        <path
           style="color:#000000;fill:#ffffff;fill-opacity:1;stroke:none;stroke-width:2;marker:none;visibility:visible;display:inline;overflow:visible;enable-background:accumulate"
           d="m 170.31919,136.85211 c 8.21839,0.56679 11.05232,-6.51804 11.05232,-6.51804 -4.53428,2.55054 -10.76893,2.83393 -10.76893,2.83393 -3.68411,2.55054 -0.28339,3.68411 -0.28339,3.68411 z"
           id="path3028"
           inkscape:connector-curvature="0" />
        <g
           id="g3114">
          <path
             sodipodi:nodetypes="cccc"
             inkscape:connector-curvature="0"
             id="path3030"
             d="m 136.26459,41.079766 c 2.74259,-6.17768 -10.21984,-11.622568 -10.21984,-11.622568 -4.40856,-0.400778 -1.40273,4.007782 -1.40273,4.007782 4.16963,-2.683891 11.62257,7.614786 11.62257,7.614786 z"
             style="color:#000000;fill:#ffffff;fill-opacity:1;stroke:#000000;stroke-width:0.5;stroke-opacity:1;marker:none;visibility:visible;display:inline;overflow:visible;enable-background:accumulate" />
          <path
             sodipodi:nodetypes="ccc"
             inkscape:connector-curvature="0"
             id="path3032"
             d="m 136.45372,41.632066 c 4.2509,-4.250895 -0.42508,-3.967502 -0.42508,-3.967502 z"
             style="color:#000000;fill:#000000;fill-opacity:1;stroke:none;stroke-width:2;marker:none;visibility:visible;display:inline;overflow:visible;enable-background:accumulate" />
        </g>
        <path
           style="color:#000000;fill:#cccccf;stroke:#000000;stroke-width:0.5;stroke-linecap:butt;stroke-linejoin:miter;stroke-miterlimit:4;stroke-opacity:1;stroke-dasharray:none;stroke-dashoffset:0;marker:none;visibility:visible;display:inline;overflow:visible;enable-background:accumulate"
           d="m 163.11673,75.747082 c 1.60311,0.200389 3.00584,-0.200389 3.00584,-0.200389 1.8035,4.608949 5.00973,2.404669 5.00973,2.404669 4.20817,-4.60895 2.00389,-6.011673 2.00389,-6.011673 -0.20039,-3.807393 -9.41829,-1.402724 -9.41829,-1.402724 z"
           id="path3040"
           inkscape:connector-curvature="0"
           sodipodi:nodetypes="cccccc" />
        <path
           style="color:#000000;fill:#ffffff;fill-opacity:1;stroke:#000000;stroke-width:0.5;stroke-opacity:1;marker:none;visibility:visible;display:inline;overflow:visible;enable-background:accumulate"
           d="m 159.55025,67.704221 c 7.08483,0 5.38447,3.117323 5.38447,3.117323 -0.70848,5.384466 -3.25902,6.801431 -3.25902,6.801431 -3.68411,0 -4.25089,-1.416965 -4.25089,-1.416965 z"
           id="path3038"
           inkscape:connector-curvature="0"
           sodipodi:nodetypes="ccccc" />
      </g>
    </g>
  </g>
  <g
     inkscape:groupmode="layer"
     id="layer3"
     inkscape:label="Silueta"
     style="display:inline"
     transform="translate(129.6955,268.75993)" />
</svg>
