<?xml version="1.0" encoding="UTF-8" standalone="no"?>
<!-- Created with Inkscape (http://www.inkscape.org/) -->

<svg
   xmlns:dc="http://purl.org/dc/elements/1.1/"
   xmlns:cc="http://creativecommons.org/ns#"
   xmlns:rdf="http://www.w3.org/1999/02/22-rdf-syntax-ns#"
   xmlns:svg="http://www.w3.org/2000/svg"
   xmlns="http://www.w3.org/2000/svg"
   xmlns:sodipodi="http://sodipodi.sourceforge.net/DTD/sodipodi-0.dtd"
   xmlns:inkscape="http://www.inkscape.org/namespaces/inkscape"
   width="600"
   height="800"
   id="svg2"
   version="1.1"
   inkscape:version="0.48.4 r9939"
   sodipodi:docname="Sandalias.svg">
  <defs
     id="defs4" />
  <sodipodi:namedview
     id="base"
     pagecolor="#ffffff"
     bordercolor="#666666"
     borderopacity="1.0"
     inkscape:pageopacity="0.0"
     inkscape:pageshadow="2"
     inkscape:zoom="0.6425"
     inkscape:cx="272.76265"
     inkscape:cy="386.77043"
     inkscape:document-units="px"
     inkscape:current-layer="layer1"
     showgrid="false"
     inkscape:window-width="1024"
     inkscape:window-height="712"
     inkscape:window-x="-4"
     inkscape:window-y="-4"
     inkscape:window-maximized="1"
     fit-margin-top="0"
     fit-margin-left="0"
     fit-margin-right="0"
     fit-margin-bottom="0" />
  <metadata
     id="metadata7">
    <rdf:RDF>
      <cc:Work
         rdf:about="">
        <dc:format>image/svg+xml</dc:format>
        <dc:type
           rdf:resource="http://purl.org/dc/dcmitype/StillImage" />
        <dc:title />
      </cc:Work>
    </rdf:RDF>
  </metadata>
  <g
     inkscape:label="Capa 1"
     inkscape:groupmode="layer"
     id="layer1"
     transform="translate(-72.047241,-238.0304)">
    <g
       id="g3825">
      <path
         sodipodi:nodetypes="sssszscs"
         inkscape:connector-curvature="0"
         id="path2996"
         d="m 399.08808,338.19246 c 20.56292,-66.3947 123.25215,-118.59893 223.67738,34.07669 31.39231,47.72546 28.83808,159.07689 4.37417,267.87247 -24.37976,108.42139 -38.38879,219.52907 -50.01822,263.21006 -22.656,85.0976 -40.23592,103.97552 -105.69498,99.04422 -65.45906,-4.93132 -101.61397,-46.88718 -77.99797,-160.65458 27.94356,-134.61498 -8.26073,-306.01721 -8.26073,-306.01721 -12.50952,-81.30948 -8.39201,-125.48828 13.92035,-197.53165 z"
         style="color:#000000;fill:#000000;fill-opacity:1;stroke:#000000;stroke-width:2;stroke-linecap:butt;stroke-linejoin:miter;stroke-miterlimit:4;stroke-opacity:1;stroke-dasharray:none;stroke-dashoffset:0;marker:none;visibility:visible;display:inline;overflow:visible;enable-background:accumulate" />
      <path
         sodipodi:nodetypes="ccccscccccscscc"
         inkscape:connector-curvature="0"
         id="path2998"
         d="m 516.15036,459.30105 c -24.97952,-31.30841 -15.29795,-33.81159 -22.94692,-50.71738 -0.6012,-8.54334 -17.90466,-18.37473 -18.09644,0.0776 4.66105,12.41749 -0.16718,24.21919 -7.06794,39.8432 -24.31365,18.85246 -52.28837,90.63524 -64.47477,162.49529 -12.18484,71.85084 12.75,105.41318 10.5365,156.09431 3.34177,24.0542 36.47742,19.86177 34.00889,-3.04125 7.32512,-30.50636 -24.06136,-91.177 -24.06136,-91.177 -18.68836,-36.69254 0.0882,-97.65056 0.0882,-97.65056 7.58615,-32.52481 47.52311,-103.39932 65.1031,-111.89992 62.38515,30.85907 100.47486,221.67213 98.49474,247.7208 -1.88635,24.81506 -37.4543,39.11419 -41.26462,66.62821 -10.15572,30.89871 27.61332,25.30543 34.57795,11.50612 16.63067,-32.95099 19.83057,-102.15079 19.83057,-102.15079 C 611.83982,592.95187 516.15037,459.3011 516.15037,459.3011 z"
         style="color:#000000;fill:#ffffff;fill-opacity:1;stroke:#cccccf;stroke-width:2;stroke-linecap:butt;stroke-linejoin:miter;stroke-miterlimit:4;stroke-opacity:1;stroke-dasharray:none;stroke-dashoffset:0;marker:none;visibility:visible;display:inline;overflow:visible;enable-background:accumulate" />
      <path
         style="color:#000000;fill:#000000;fill-opacity:1;stroke:#000000;stroke-width:2;stroke-linecap:butt;stroke-linejoin:miter;stroke-miterlimit:4;stroke-opacity:1;stroke-dasharray:none;stroke-dashoffset:0;marker:none;visibility:visible;display:inline;overflow:visible;enable-background:accumulate"
         d="m 345.00641,338.19246 c -20.56292,-66.3947 -123.25215,-118.59893 -223.67738,34.07669 -31.392311,47.72546 -28.838075,159.07689 -4.37417,267.87247 24.37976,108.42139 38.38879,219.52907 50.01822,263.21006 22.656,85.0976 40.23592,103.97552 105.69498,99.04422 65.45906,-4.93132 101.61397,-46.88718 77.99797,-160.65458 -27.94356,-134.61498 8.26073,-306.01721 8.26073,-306.01721 12.50952,-81.30948 8.39201,-125.48828 -13.92035,-197.53165 z"
         id="path3803"
         inkscape:connector-curvature="0"
         sodipodi:nodetypes="sssszscs" />
      <path
         style="color:#000000;fill:#ffffff;fill-opacity:1;stroke:#cccccf;stroke-width:2;stroke-linecap:butt;stroke-linejoin:miter;stroke-miterlimit:4;stroke-opacity:1;stroke-dasharray:none;stroke-dashoffset:0;marker:none;visibility:visible;display:inline;overflow:visible;enable-background:accumulate"
         d="m 227.94413,459.30105 c 24.97952,-31.30841 15.29795,-33.81159 22.94692,-50.71738 0.6012,-8.54334 17.90466,-18.37473 18.09644,0.0776 -4.66105,12.41749 0.16718,24.21919 7.06794,39.8432 24.31365,18.85246 52.28837,90.63524 64.47477,162.49529 12.18484,71.85084 -12.75,105.41318 -10.5365,156.09431 -3.34177,24.0542 -36.47742,19.86177 -34.00889,-3.04125 -7.32512,-30.50636 24.06136,-91.177 24.06136,-91.177 18.68836,-36.69254 -0.0882,-97.65056 -0.0882,-97.65056 -7.58615,-32.52481 -47.52311,-103.39932 -65.1031,-111.89992 -62.38515,30.85907 -100.47486,221.67213 -98.49474,247.7208 1.88635,24.81506 37.4543,39.11419 41.26462,66.62821 10.15572,30.89871 -27.61332,25.30543 -34.57795,11.50612 C 146.41613,756.22948 143.21623,687.02968 143.21623,687.02968 132.25467,592.95187 227.94412,459.3011 227.94412,459.3011 z"
         id="path3805"
         inkscape:connector-curvature="0"
         sodipodi:nodetypes="ccccscccccscscc" />
    </g>
  </g>
</svg>
