<?xml version="1.0" encoding="utf-8"?>
<svg version="1.1" id="Layer_1" xmlns="http://www.w3.org/2000/svg" xmlns:xlink="http://www.w3.org/1999/xlink" x="0px" y="0px"
	 width="460px" height="500px" viewBox="135 95 280 280" enable-background="new 0 0 504 504" xml:space="preserve">
<g id="turkey">
	<path sexy="turkey" style="fill:#333333" d="M179.086,85.229c1.154,0.445,0.64,2.56,2.057,2.743
		c9.633,0.195,13.467,6.189,18.514,10.971c2.549,5.343,4.464,11.108,3.771,19.543c-0.492,5.994-3.954,14.203-6.515,20.571
		c-4.873,12.12-11.043,23.719-12.343,39.771c-0.313,3.876-0.214,8.601,2.057,12c3.125-1.096,3.854-4.386,5.829-6.857
		c3.664-4.584,9.281-8.832,14.743-13.029c7.123-5.473,13.234-10.172,21.6-13.714c3.424-1.45,5.764-1.07,10.286-1.714
		c5.798-0.826,12.213-3.185,19.2-4.457c5.407-0.985,12.431-1.539,17.828-1.714c4.558-0.148,12.165,2.018,15.771,0.343
		c2.034-0.945,1.866-3.611,3.086-6.857c1.29-3.436,4.333-9.609,5.828-12.343c1.608-2.939,4.103-6.498,6.515-9.943
		c4.319-6.17,9.383-12.125,14.743-17.486c2.796-2.796,5.271-6.292,7.886-8.229c1.021-0.757,5.124-3.062,6.856-3.086
		c5.771-0.079,7.076,5.287,10.286,9.257c4.881-1.312,10.493,0.292,13.714,3.429c1.765,1.718,2.43,4.796,4.457,6.514
		c1.069,0.905,2.637,0.899,3.771,1.714c5.522,3.962,5.96,10.642,9.258,15.429c5.321,0.278,8.406,2.793,10.628,6.171
		c1.657,6.989,7.168,10.511,5.486,19.886c6.07,4.348,10.796,9.31,11.313,17.829c0.138,2.263-1.175,4.547-1.028,6.857
		c0.187,2.923,2.486,5.83,4.8,6.857c0,9.143,0,18.286,0,27.429c-6.626,1.518-4.133,9.673,0,11.657c0,3.086,0,6.171,0,9.257
		c-1.877,0.578-1.9,2.149-3.428,4.457c-0.905,1.367-2.043,2.065-2.4,3.085c-0.561,1.6,0.132,3.619-0.343,5.486
		c-0.632,2.483-3.404,4.08-3.429,6.857c-0.027,3.079,2.943,5.336,3.086,8.229c0.121,2.482-1.051,5.859-2.058,7.886
		c-1.017,2.048-3.353,2.984-3.771,5.144c-0.521,2.69,0.991,5.548,0.686,7.886c-0.789,6.048-5.457,8.416-9.942,12.686
		c-0.08,1.68,0.604,2.596,0.343,4.457c-2.147,7.225-13.014,5.729-14.057,14.057c-2.789,4.149-7.898,3.129-12.344,5.144
		c-1.729,0.783-2.5,3.467-4.457,4.457c-5.587,2.826-12.753-0.842-20.229,0.686c-0.693,2.417,2.46,2.785,1.715,4.114
		c-0.257,1.687-2.537,1.349-2.743,3.086c2.84,3.674,6.74,6.288,7.543,12c-1.665,3.322-5.509,0.708-8.914,1.714
		c0.324,5.202,8.573,4.894,7.543,9.943c-0.332,1.622-2.409,2.633-4.458,2.742c-2.001,0.107-3.89-1.423-5.485-1.371
		s-2.199,1.342-3.771,2.057c-0.79,0.36-1.784,0.028-2.399,0.344c-1.517,0.776-2.567,2.719-4.458,3.085
		c-5.849,1.135-9.76-6.021-14.399-6.514c-0.543,3.29,3.745,3.562,2.743,6.171c-1.39,2.297-4.994,0.989-6.857,0.343
		c-3.366-1.166-6.297-3.847-9.257-5.143c-3.993-1.748-9.093-0.015-12.687-2.4c-2.342,1.161-0.826,4.423,0,6.172
		c-0.165,2.399-2.823,2.158-3.429,4.457c-0.561,2.134,1.075,4.509,0,7.2c-3.228,2.538-9.957,4.431-16.457,4.8
		c-3.935,0.224-8.57-0.883-8.914,3.086c-3.085,0-6.171,0-9.257,0c0-1.371,0-2.743,0-4.114c-0.678-1.837-3.741-1.288-4.8-2.743
		c-0.833-1.166,0.612-2.604-0.343-3.771c-3.026-1.369-6.054-0.456-9.257-0.686c-3.163-0.227-6.341-1.516-9.257-1.028
		c-4.615,0.771-7.418,6.826-12.686,6.171c-1.508-0.892-0.688-4.111-2.057-5.143c-1.674-1.184-5.398,0.737-6.171-0.686
		c0.384-2.95,3.686-5.292,6.171-6.172c7.474-2.645,20.807-0.478,26.743-5.485c5.93-5.002,7.277-17.669,6.514-28.114
		c-0.217-2.968-1.171-6.338-3.429-7.886c-16.102,0.583-26.261-1.621-39.771-3.429c-4.717-0.631-9.712-3.061-13.714-5.485
		c-3.948-2.393-6.998-6.225-10.629-8.229c-3.194-1.763-7.628-2.866-9.943-4.801c-7.964-6.654-10.749-18.273-14.743-29.143
		c-2.401-6.534-4.734-9.52-5.143-18.514c-0.498-10.974-0.659-24.164,0.686-34.286c0.442-3.329,1.95-6.184,2.4-9.257
		c0.443-3.03-0.252-5.885,0-8.229c0.432-4.01,2.052-8.415,3.429-12c0.452-1.177,1.82-2.114,2.4-3.428
		c0.558-1.264,0.435-2.889,1.028-4.114c0.782-1.616,2.664-3.054,2.743-5.143c0.085-2.244-2.186-3.382-3.086-6.857
		c-0.56-2.163,0.066-4.988-0.343-6.857c-0.322-1.472-1.532-2.852-1.714-4.114c-0.899-6.227,3.512-12.266,4.457-18.514
		c0.813-5.375,1.087-14.803-4.114-15.771c-4.206-0.783-7.049,3.154-10.286,3.428c-0.417-2.246,0.207-3.45,2.057-3.428
		c2.257-7,8.456-10.059,9.6-18.171c9.7-4.701,11.772-17.028,26.057-17.143C175.247,84.818,177.279,85.136,179.086,85.229z
		 M243.886,367.058c2.293,1.036,3.751-0.066,6.857,0c2.625,0.056,5.289,1.105,7.201,1.028c3.471-0.141,9.618-2.3,11.313-3.771
		c1.931-1.675,5.257-9.298,4.114-13.715c-0.466-1.802-3.512-3.115-5.143-4.8c-5.433-5.61-8.857-11.492-13.028-17.143
		c-0.343,0-0.686,0-1.028,0c-5.061,8.679-12.459,16.765-12.343,29.485C238.77,360.416,240.631,365.586,243.886,367.058z"/>
</g>
</svg>
